<svg xmlns="http://www.w3.org/2000/svg" width="32" height="24"><defs><linearGradient id="a" x1=".183%" x2="100.273%" y1="49.96%" y2="49.96%"><stop offset="0%" stop-color="#007940"/><stop offset="22.85%" stop-color="#00873F"/><stop offset="74.33%" stop-color="#40A737"/><stop offset="100%" stop-color="#5CB531"/></linearGradient><linearGradient id="b" x1=".183%" x2="100.273%" y1="49.96%" y2="49.96%"><stop offset="0%" stop-color="#007940"/><stop offset="22.85%" stop-color="#00873F"/><stop offset="74.33%" stop-color="#40A737"/><stop offset="100%" stop-color="#5CB531"/></linearGradient><linearGradient id="c" x1=".183%" x2="100.273%" y1="49.96%" y2="49.96%"><stop offset="0%" stop-color="#007940"/><stop offset="22.85%" stop-color="#00873F"/><stop offset="74.33%" stop-color="#40A737"/><stop offset="100%" stop-color="#5CB531"/></linearGradient><linearGradient id="d" x1="-.576%" x2="98.133%" y1="49.914%" y2="49.914%"><stop offset="0%" stop-color="#6C2C2F"/><stop offset="17.35%" stop-color="#882730"/><stop offset="57.31%" stop-color="#BE1833"/><stop offset="85.85%" stop-color="#DC0436"/><stop offset="100%" stop-color="#E60039"/></linearGradient><linearGradient id="e" x1=".176%" x2="101.808%" y1="50.006%" y2="50.006%"><stop offset="0%" stop-color="#1F286F"/><stop offset="47.51%" stop-color="#004E94"/><stop offset="82.61%" stop-color="#0066B1"/><stop offset="100%" stop-color="#006FBC"/></linearGradient></defs><g fill="none" fill-rule="evenodd"><rect width="31" height="23" x=".5" y=".5" fill="#F7F7F7" stroke="#DCDCDC" rx="2"/><path fill="url(#a)" fill-rule="nonzero" d="M0 1.5h1.694c.048 0 .16-.016.21-.016A.738.738 0 002.5.75a.764.764 0 00-.597-.734C1.855 0 1.758 0 1.693 0H0v1.5z" transform="translate(22 12.343)"/><path fill="url(#b)" fill-rule="nonzero" d="M1.479.017C1.45.017 1.38 0 1.338 0H0v1.5h1.338c.042 0 .127 0 .14-.017C1.762 1.432 2 1.159 2 .75c0-.41-.24-.682-.521-.733z" transform="translate(22 10.07)"/><path fill="url(#c)" fill-rule="nonzero" d="M2.853 0A2.837 2.837 0 00.016 2.836V5.78h4.006c.094 0 .203 0 .28.016.905.046 1.576.514 1.576 1.324 0 .639-.453 1.184-1.294 1.293.92.094 1.62.608 1.62 1.403 0 .857-.779 1.418-1.808 1.418H0V17h4.163A2.837 2.837 0 007 14.164V0H2.853z" transform="translate(20.449 3.27)"/><path fill="url(#d)" fill-rule="nonzero" d="M2.837 0A2.836 2.836 0 000 2.833v3.705c.717-.607 1.964-.996 3.976-.902 1.075.046 2.229.342 2.229.342v1.199c-.577-.296-1.263-.56-2.152-.623-1.527-.109-2.447.638-2.447 1.946 0 1.323.92 2.07 2.447 1.946.89-.062 1.575-.343 2.152-.623v1.199s-1.138.296-2.23.342c-2.01.094-3.258-.295-3.975-.902V17h4.163A2.836 2.836 0 007 14.167V0H2.837z" transform="translate(12.415 3.27)"/><path fill="url(#e)" fill-rule="nonzero" d="M2.853 0A2.838 2.838 0 00.016 2.839V9.84c.795.39 1.621.64 2.447.64.982 0 1.513-.593 1.513-1.404V5.771h2.432v3.29c0 1.28-.796 2.324-3.493 2.324-1.637 0-2.915-.358-2.915-.358V17h4.163A2.838 2.838 0 007 14.161V0H2.853z" transform="translate(4.35 3.27)"/></g></svg>